<?xml version="1.0" encoding="UTF-8"?>
<svg width="284px" height="53px" viewBox="0 0 284 53" version="1.1" xmlns="http://www.w3.org/2000/svg" xmlns:xlink="http://www.w3.org/1999/xlink">
    <!-- Generator: Sketch 51 (57462) - http://www.bohemiancoding.com/sketch -->
    <title>Luke_LJ_Logomark_Black</title>
    <desc>Created with Sketch.</desc>
    <defs>
        <polygon id="path-1" points="0.06 0.822 18.413 0.822 18.413 25.973 0.06 25.973"></polygon>
        <polygon id="path-3" points="0.406 0.02 130.809 0.02 130.809 52.94 0.406 52.94"></polygon>
    </defs>
    <g id="Luke_LJ_Logomark_Black" stroke="none" stroke-width="1" fill="none" fill-rule="evenodd">
        <g id="Group-3">
            <mask id="mask-2" fill="white">
                <use xlink:href="#path-1"></use>
            </mask>
            <g id="Clip-2"></g>
            <path d="M15.775,25.702 C15.925,25.386 15.911,25.159 15.734,25.023 C15.553,24.885 15.307,24.74 14.99,24.59 L0,17.39 L0.27,16.822 C0.901,17.125 1.307,17.088 1.488,16.71 L8.353,2.408 C8.538,2.031 8.312,1.69 7.681,1.388 L7.954,0.822 L13.373,3.423 L13.1,3.99 C12.513,3.707 12.127,3.755 11.946,4.133 L5.927,16.67 L16.382,21.691 C16.7,21.843 16.99,21.892 17.259,21.841 C17.529,21.79 17.727,21.638 17.846,21.387 L18.413,21.659 L16.341,25.973 L15.775,25.702" id="Fill-1" fill="#1A1919" mask="url(#mask-2)"></path>
        </g>
        <path d="M36.528,14.274 C36.046,14.097 35.733,14.205 35.586,14.597 L31.954,24.429 C31.446,25.806 31.538,26.916 32.234,27.754 C32.926,28.595 34.126,29.332 35.829,29.961 C37.534,30.591 38.921,30.813 39.997,30.627 C41.071,30.441 41.862,29.661 42.371,28.284 L46.005,18.453 C46.15,18.058 45.897,17.742 45.239,17.5 L45.457,16.909 L50.699,18.848 L50.481,19.437 C49.956,19.245 49.622,19.343 49.478,19.738 L45.904,29.405 C45.426,30.695 44.847,31.69 44.164,32.393 C43.482,33.098 42.677,33.563 41.75,33.791 C40.822,34.019 39.771,34.016 38.605,33.783 C37.439,33.548 36.132,33.167 34.693,32.632 C33.25,32.1 32.012,31.541 30.972,30.959 C29.935,30.376 29.137,29.697 28.581,28.919 C28.025,28.141 27.715,27.263 27.657,26.286 C27.595,25.306 27.803,24.173 28.281,22.883 L31.855,13.216 C31.998,12.823 31.767,12.512 31.156,12.287 L31.374,11.697 L36.746,13.684 L36.528,14.274" id="Fill-4" fill="#1A1919"></path>
        <path d="M59.742,39.336 C59.691,39.539 59.717,39.71 59.824,39.845 C59.933,39.983 60.076,40.075 60.256,40.123 L60.097,40.729 L54.828,39.342 L54.989,38.734 C55.483,38.865 55.784,38.726 55.889,38.323 L59.929,22.981 C60.035,22.577 59.84,22.306 59.346,22.177 L59.505,21.57 L64.778,22.957 L64.618,23.566 C64.437,23.518 64.266,23.527 64.106,23.593 C63.942,23.659 63.835,23.793 63.782,23.996 L62.092,30.416 L70.535,26.75 C70.923,26.561 71.228,26.409 71.453,26.288 C71.678,26.165 71.804,26.048 71.835,25.935 C71.876,25.778 71.855,25.651 71.77,25.556 C71.688,25.463 71.579,25.399 71.442,25.363 L71.603,24.755 L78.7,26.624 L78.54,27.231 C78.133,27.125 77.683,27.186 77.189,27.419 L67.788,31.553 L72.722,41.633 C72.926,42.048 73.183,42.471 73.49,42.902 C73.799,43.333 74.13,43.654 74.483,43.869 L74.322,44.476 L68.071,42.83 L68.232,42.222 C68.525,42.299 68.692,42.258 68.733,42.101 C68.764,41.989 68.671,41.699 68.457,41.233 L64.43,33.055 L61.015,34.503 L59.742,39.336" id="Fill-5" fill="#1A1919"></path>
        <path d="M103.268,34.806 C103.309,34.553 103.241,34.347 103.067,34.188 C102.893,34.03 102.565,33.91 102.081,33.83 L90.912,31.982 L90.206,36.257 L96.963,37.375 C97.423,37.45 97.788,37.447 98.061,37.362 C98.337,37.278 98.518,36.971 98.603,36.442 L99.225,36.544 L98.335,41.922 L97.713,41.82 C97.802,41.291 97.73,40.933 97.505,40.74 C97.276,40.549 96.932,40.416 96.471,40.34 L89.715,39.221 L88.926,43.978 L100.443,45.884 C100.787,45.942 101.081,45.908 101.327,45.783 C101.572,45.659 101.716,45.457 101.763,45.181 L102.381,45.285 L101.6,50.008 L100.982,49.905 C101.037,49.561 100.961,49.346 100.751,49.264 C100.538,49.182 100.262,49.112 99.917,49.056 L83.852,46.397 L83.955,45.776 C84.115,45.804 84.269,45.775 84.412,45.693 C84.555,45.611 84.644,45.466 84.678,45.259 L87.268,29.607 C87.302,29.401 87.265,29.235 87.155,29.111 C87.046,28.986 86.91,28.911 86.75,28.886 L86.852,28.265 L102.572,30.867 C103.057,30.945 103.408,30.928 103.627,30.81 C103.848,30.692 103.978,30.508 104.019,30.256 L104.64,30.358 L103.886,34.908 L103.268,34.806" id="Fill-6" fill="#1A1919"></path>
        <path d="M127.601,46.611 L128.154,46.836 C128.215,47.211 128.381,47.543 128.666,47.831 C128.949,48.119 129.296,48.368 129.71,48.578 C130.126,48.788 130.573,48.954 131.061,49.071 C131.545,49.19 132.01,49.257 132.453,49.27 C133.849,49.311 134.872,49.137 135.528,48.749 C136.179,48.361 136.521,47.606 136.555,46.49 L136.886,35.279 C136.896,34.953 136.763,34.691 136.49,34.498 C136.213,34.302 135.951,34.202 135.695,34.196 L135.711,33.565 L142.349,33.761 L142.328,34.389 C141.932,34.377 141.595,34.461 141.308,34.64 C141.025,34.818 140.875,35.071 140.868,35.396 L140.527,46.921 C140.499,47.829 140.284,48.616 139.881,49.279 C139.476,49.945 138.919,50.487 138.206,50.909 C137.497,51.33 136.661,51.62 135.698,51.779 C134.739,51.935 133.678,51.999 132.511,51.962 C131.791,51.943 131.128,51.876 130.525,51.764 C129.925,51.654 129.386,51.528 128.911,51.386 C128.437,51.243 128.024,51.11 127.666,50.981 C127.308,50.855 127.011,50.788 126.779,50.781 C126.523,50.773 126.311,50.907 126.141,51.181 L125.625,50.816 L127.601,46.611" id="Fill-7" fill="#1A1919"></path>
        <path d="M229.755,39.799 C230.004,39.736 230.167,39.593 230.243,39.37 C230.317,39.146 230.295,38.799 230.176,38.326 L227.404,27.346 L223.203,28.409 L224.88,35.048 C224.995,35.502 225.144,35.835 225.331,36.05 C225.518,36.267 225.871,36.312 226.391,36.182 L226.546,36.792 L221.261,38.127 L221.107,37.514 C221.625,37.383 221.927,37.174 222.011,36.89 C222.096,36.605 222.081,36.236 221.968,35.786 L220.289,29.143 L215.615,30.328 L218.473,41.64 C218.559,41.978 218.707,42.234 218.919,42.412 C219.13,42.586 219.374,42.638 219.644,42.572 L219.799,43.18 L215.158,44.35 L215.003,43.742 C215.342,43.657 215.505,43.5 215.498,43.274 C215.488,43.047 215.442,42.768 215.355,42.426 L211.368,26.64 L211.977,26.485 C212.017,26.644 212.105,26.773 212.238,26.873 C212.371,26.971 212.538,26.995 212.742,26.943 L228.122,23.058 C228.326,23.007 228.461,22.904 228.532,22.755 C228.603,22.605 228.619,22.453 228.578,22.294 L229.188,22.138 L233.088,37.586 C233.21,38.063 233.367,38.377 233.563,38.534 C233.756,38.686 233.98,38.732 234.228,38.669 L234.381,39.279 L229.911,40.409 L229.755,39.799" id="Fill-8" fill="#1A1919"></path>
        <g id="Group-14" transform="translate(153.000000, 0.000000)">
            <mask id="mask-4" fill="white">
                <use xlink:href="#path-3"></use>
            </mask>
            <g id="Clip-10"></g>
            <path d="M40.245,37.821 C39.715,38.031 39.035,38.191 38.205,38.321 L32.225,39.211 L31.465,34.09 L37.445,33.201 C38.275,33.081 38.975,33.041 39.545,33.081 C40.115,33.13 40.575,33.241 40.935,33.42 C41.295,33.611 41.565,33.84 41.745,34.13 C41.935,34.42 42.055,34.751 42.105,35.121 C42.165,35.491 42.145,35.84 42.055,36.17 C41.965,36.501 41.775,36.811 41.485,37.09 C41.195,37.371 40.785,37.611 40.245,37.821 Z M48.635,46.441 C48.455,46.471 48.245,46.481 48.025,46.461 C47.795,46.451 47.585,46.34 47.395,46.13 L41.815,40.251 C43.295,39.751 44.425,39.031 45.195,38.09 C45.975,37.151 46.254,35.92 46.025,34.401 C45.876,33.401 45.585,32.601 45.135,31.971 C44.685,31.34 44.105,30.861 43.405,30.531 C42.695,30.201 41.876,30.001 40.945,29.941 C40.025,29.88 39.004,29.931 37.895,30.101 L26.075,31.861 L26.165,32.481 C26.835,32.38 27.205,32.541 27.265,32.961 L29.605,48.641 C29.665,49.061 29.365,49.321 28.695,49.42 L28.785,50.041 L34.765,49.151 L34.675,48.521 C34.285,48.581 34.004,48.571 33.845,48.491 C33.675,48.411 33.575,48.26 33.545,48.061 L32.626,41.911 L37.575,41.17 L42.175,45.991 C42.395,46.221 42.565,46.401 42.675,46.531 C42.795,46.67 42.855,46.8 42.876,46.911 C42.895,47.031 42.835,47.13 42.695,47.221 C42.555,47.311 42.385,47.371 42.175,47.401 L42.265,48.031 L48.725,47.061 L48.635,46.441 Z" id="Fill-9" fill="#1A1919" mask="url(#mask-4)"></path>
            <path d="M16.565,52.116 C16.556,51.961 16.503,51.824 16.408,51.711 C16.312,51.597 16.174,51.545 15.999,51.559 L2.518,52.351 C2.34,52.36 2.222,52.428 2.16,52.549 C2.097,52.673 2.071,52.811 2.079,52.969 L1.547,53 L1.223,47.473 L1.754,47.442 C1.76,47.541 1.796,47.642 1.862,47.746 C1.928,47.851 2.02,47.901 2.138,47.892 C2.236,47.888 2.362,47.84 2.515,47.752 C2.668,47.664 2.83,47.567 3.002,47.456 L10.439,42.779 L2.59,38.967 C2.328,38.844 2.119,38.752 1.967,38.693 C1.816,38.634 1.68,38.607 1.562,38.613 C1.346,38.626 1.244,38.759 1.259,39.016 L0.727,39.045 L0.406,33.579 L0.938,33.545 C0.948,33.704 0.99,33.842 1.066,33.954 C1.142,34.07 1.269,34.121 1.447,34.109 L14.925,33.316 C15.103,33.307 15.232,33.242 15.314,33.116 C15.396,32.994 15.433,32.854 15.422,32.696 L15.955,32.665 L16.227,37.306 L15.696,37.336 C15.665,36.803 15.472,36.55 15.117,36.57 L5.303,37.145 L5.306,37.205 L16.534,42.508 L16.539,42.598 L5.973,49.061 L5.978,49.121 L15.821,48.543 C16.174,48.522 16.336,48.235 16.305,47.684 L16.836,47.651 L17.097,52.086 L16.565,52.116" id="Fill-11" fill="#1A1919" mask="url(#mask-4)"></path>
            <path d="M95.895,26.88 L96.695,19.641 L101.715,24.711 L95.895,26.88 Z M111.915,27.84 C111.635,27.821 111.375,27.791 111.155,27.751 C110.925,27.711 110.715,27.59 110.515,27.391 L98.735,16.611 C98.475,16.381 98.275,16.201 98.135,16.05 C97.995,15.901 97.885,15.741 97.815,15.571 C97.735,15.331 97.745,15.141 97.875,15.01 C97.995,14.881 98.125,14.76 98.265,14.661 L98.045,14.071 L92.515,16.131 L92.735,16.721 C92.925,16.701 93.115,16.711 93.295,16.741 C93.475,16.771 93.615,16.891 93.695,17.111 C93.765,17.281 93.775,17.51 93.745,17.8 C93.715,18.081 93.675,18.401 93.635,18.741 L92.325,33.731 C92.295,34.09 92.235,34.42 92.165,34.731 C92.084,35.031 91.915,35.251 91.655,35.401 L91.865,35.991 L96.515,34.26 L96.295,33.67 C95.885,33.821 95.635,33.781 95.545,33.541 C95.465,33.34 95.455,32.971 95.504,32.441 L95.815,29.67 L103.805,26.691 L105.945,28.651 C106.254,28.931 106.445,29.181 106.525,29.401 C106.575,29.531 106.545,29.651 106.445,29.771 C106.334,29.88 106.235,29.951 106.145,29.991 L106.375,30.581 L112.135,28.431 L111.915,27.84 Z" id="Fill-12" fill="#1A1919" mask="url(#mask-4)"></path>
            <path d="M117.563,5.783 L117.833,6.349 C117.645,6.44 117.478,6.552 117.338,6.685 C117.196,6.819 117.174,6.991 117.274,7.201 C117.334,7.327 117.631,7.552 118.161,7.879 C118.693,8.207 119.307,8.569 120.003,8.97 C120.703,9.374 121.422,9.782 122.164,10.2 C122.908,10.62 123.521,10.983 124.005,11.294 L125.258,4.452 C125.302,4.12 125.343,3.855 125.38,3.657 C125.416,3.46 125.402,3.297 125.34,3.173 C125.268,3.026 125.125,2.978 124.904,3.033 C124.684,3.087 124.491,3.154 124.324,3.234 L124.05,2.669 L129.564,0.02 L129.834,0.587 C129.667,0.669 129.516,0.758 129.386,0.861 C129.253,0.963 129.137,1.11 129.036,1.301 C128.933,1.492 128.844,1.741 128.772,2.047 C128.701,2.354 128.629,2.756 128.557,3.255 L126.848,13.417 L129.541,19.024 C129.721,19.401 130.055,19.475 130.537,19.243 L130.809,19.809 L125.834,22.199 L125.561,21.633 C125.75,21.543 125.886,21.42 125.964,21.264 C126.046,21.109 126.04,20.937 125.951,20.748 L123.258,15.141 L113.093,9.555 C112.847,9.418 112.538,9.347 112.162,9.345 C111.787,9.345 111.494,9.395 111.282,9.496 L111.011,8.929 L117.563,5.783" id="Fill-13" fill="#1A1919" mask="url(#mask-4)"></path>
        </g>
    </g>
</svg>