<?xml version="1.0" encoding="utf-8"?>
<!-- Generator: Adobe Illustrator 22.1.0, SVG Export Plug-In . SVG Version: 6.00 Build 0)  -->
<svg version="1.1" id="Layer_1" xmlns="http://www.w3.org/2000/svg" xmlns:xlink="http://www.w3.org/1999/xlink" x="0px" y="0px"
	 viewBox="0 0 284 53" style="enable-background:new 0 0 284 53;" xml:space="preserve">
<style type="text/css">
	.st0{filter:url(#Adobe_OpacityMaskFilter);}
	.st1{fill:#FFFFFF;}
	.st2{mask:url(#mask-2_1_);fill:#FFFFFF;}
	.st3{filter:url(#Adobe_OpacityMaskFilter_1_);}
	.st4{mask:url(#mask-4_1_);fill:#FFFFFF;}
	.st5{filter:url(#Adobe_OpacityMaskFilter_2_);}
	.st6{mask:url(#mask-4_2_);fill:#FFFFFF;}
	.st7{filter:url(#Adobe_OpacityMaskFilter_3_);}
	.st8{mask:url(#mask-4_3_);fill:#FFFFFF;}
	.st9{filter:url(#Adobe_OpacityMaskFilter_4_);}
	.st10{mask:url(#mask-4_4_);fill:#FFFFFF;}
</style>
<title>Luke_LJ_Logomark_Black</title>
<desc>Created with Sketch.</desc>
<g id="Luke_LJ_Logomark_Black">
	<g id="Group-3">
		<g id="Clip-2">
		</g>
		<defs>
			<filter id="Adobe_OpacityMaskFilter" filterUnits="userSpaceOnUse" x="0" y="0.8" width="18.4" height="25.2">
				<feColorMatrix  type="matrix" values="1 0 0 0 0  0 1 0 0 0  0 0 1 0 0  0 0 0 1 0"/>
			</filter>
		</defs>
		<mask maskUnits="userSpaceOnUse" x="0" y="0.8" width="18.4" height="25.2" id="mask-2_1_">
			<g class="st0">
				<polygon id="path-1_1_" class="st1" points="0.1,0.8 18.4,0.8 18.4,26 0.1,26 				"/>
			</g>
		</mask>
		<path id="Fill-1" class="st2" d="M15.8,25.7c0.2-0.3,0.1-0.5,0-0.7c-0.2-0.1-0.4-0.3-0.7-0.4L0,17.4l0.3-0.6
			c0.6,0.3,1,0.3,1.2-0.1L8.4,2.4c0.2-0.4,0-0.7-0.7-1L8,0.8l5.4,2.6L13.1,4c-0.6-0.3-1-0.2-1.2,0.1l-6,12.5l10.5,5
			c0.3,0.2,0.6,0.2,0.9,0.1c0.3-0.1,0.5-0.2,0.6-0.5l0.6,0.3L16.3,26L15.8,25.7"/>
	</g>
	<path id="Fill-4" class="st1" d="M36.5,14.3c-0.5-0.2-0.8-0.1-0.9,0.3L32,24.4c-0.5,1.4-0.4,2.5,0.3,3.3c0.7,0.8,1.9,1.6,3.6,2.2
		c1.7,0.6,3.1,0.9,4.2,0.7c1.1-0.2,1.9-1,2.4-2.3l3.6-9.8c0.1-0.4-0.1-0.7-0.8-1l0.2-0.6l5.2,1.9l-0.2,0.6c-0.5-0.2-0.9-0.1-1,0.3
		l-3.6,9.7c-0.5,1.3-1.1,2.3-1.7,3c-0.7,0.7-1.5,1.2-2.4,1.4c-0.9,0.2-2,0.2-3.1,0c-1.2-0.2-2.5-0.6-3.9-1.2
		C33.2,32.1,32,31.5,31,31c-1-0.6-1.8-1.3-2.4-2s-0.9-1.7-0.9-2.6c-0.1-1,0.1-2.1,0.6-3.4l3.6-9.7c0.1-0.4-0.1-0.7-0.7-0.9l0.2-0.6
		l5.4,2L36.5,14.3"/>
	<path id="Fill-5" class="st1" d="M59.7,39.3c-0.1,0.2,0,0.4,0.1,0.5c0.1,0.1,0.3,0.2,0.4,0.3l-0.2,0.6l-5.3-1.4l0.2-0.6
		c0.5,0.1,0.8,0,0.9-0.4l4-15.3c0.1-0.4-0.1-0.7-0.6-0.8l0.2-0.6l5.3,1.4l-0.2,0.6c-0.2,0-0.4,0-0.5,0c-0.2,0.1-0.3,0.2-0.3,0.4
		l-1.7,6.4l8.4-3.7c0.4-0.2,0.7-0.3,0.9-0.5c0.2-0.1,0.4-0.2,0.4-0.4c0-0.2,0-0.3-0.1-0.4c-0.1-0.1-0.2-0.2-0.3-0.2l0.2-0.6l7.1,1.9
		l-0.2,0.6c-0.4-0.1-0.9,0-1.4,0.2l-9.4,4.1l4.9,10.1c0.2,0.4,0.5,0.8,0.8,1.3c0.3,0.4,0.6,0.8,1,1l-0.2,0.6l-6.3-1.6l0.2-0.6
		c0.3,0.1,0.5,0,0.5-0.1c0-0.1-0.1-0.4-0.3-0.9l-4-8.2L61,34.5L59.7,39.3"/>
	<path id="Fill-6" class="st1" d="M103.3,34.8c0-0.3,0-0.5-0.2-0.6c-0.2-0.2-0.5-0.3-1-0.4L90.9,32l-0.7,4.3l6.8,1.1
		c0.5,0.1,0.8,0.1,1.1,0c0.3-0.1,0.5-0.4,0.5-0.9l0.6,0.1l-0.9,5.4l-0.6-0.1c0.1-0.5,0-0.9-0.2-1.1c-0.2-0.2-0.6-0.3-1-0.4l-6.8-1.1
		L88.9,44l11.5,1.9c0.3,0.1,0.6,0,0.9-0.1c0.2-0.1,0.4-0.3,0.4-0.6l0.6,0.1l-0.8,4.7l-0.6-0.1c0.1-0.3,0-0.6-0.2-0.6
		c-0.2-0.1-0.5-0.2-0.8-0.2l-16.1-2.7l0.1-0.6c0.2,0,0.3,0,0.5-0.1c0.1-0.1,0.2-0.2,0.3-0.4l2.6-15.7c0-0.2,0-0.4-0.1-0.5
		c-0.1-0.1-0.2-0.2-0.4-0.2l0.1-0.6l15.7,2.6c0.5,0.1,0.8,0.1,1.1-0.1c0.2-0.1,0.4-0.3,0.4-0.6l0.6,0.1l-0.8,4.6L103.3,34.8"/>
	<path id="Fill-7" class="st1" d="M127.6,46.6l0.6,0.2c0.1,0.4,0.2,0.7,0.5,1c0.3,0.3,0.6,0.5,1,0.7c0.4,0.2,0.9,0.4,1.4,0.5
		c0.5,0.1,0.9,0.2,1.4,0.2c1.4,0,2.4-0.1,3.1-0.5c0.7-0.4,1-1.1,1-2.3l0.3-11.2c0-0.3-0.1-0.6-0.4-0.8c-0.3-0.2-0.5-0.3-0.8-0.3
		l0-0.6l6.6,0.2l0,0.6c-0.4,0-0.7,0.1-1,0.3c-0.3,0.2-0.4,0.4-0.4,0.8l-0.3,11.5c0,0.9-0.2,1.7-0.6,2.4c-0.4,0.7-1,1.2-1.7,1.6
		c-0.7,0.4-1.5,0.7-2.5,0.9c-1,0.2-2,0.2-3.2,0.2c-0.7,0-1.4-0.1-2-0.2c-0.6-0.1-1.1-0.2-1.6-0.4c-0.5-0.1-0.9-0.3-1.2-0.4
		c-0.4-0.1-0.7-0.2-0.9-0.2c-0.3,0-0.5,0.1-0.6,0.4l-0.5-0.4L127.6,46.6"/>
	<path id="Fill-8" class="st1" d="M229.8,39.8c0.2-0.1,0.4-0.2,0.5-0.4c0.1-0.2,0.1-0.6-0.1-1l-2.8-11l-4.2,1.1l1.7,6.6
		c0.1,0.5,0.3,0.8,0.5,1c0.2,0.2,0.5,0.3,1.1,0.1l0.2,0.6l-5.3,1.3l-0.2-0.6c0.5-0.1,0.8-0.3,0.9-0.6c0.1-0.3,0.1-0.7,0-1.1
		l-1.7-6.6l-4.7,1.2l2.9,11.3c0.1,0.3,0.2,0.6,0.4,0.8c0.2,0.2,0.5,0.2,0.7,0.2l0.2,0.6l-4.6,1.2l-0.2-0.6c0.3-0.1,0.5-0.2,0.5-0.5
		c0-0.2-0.1-0.5-0.1-0.8l-4-15.8l0.6-0.2c0,0.2,0.1,0.3,0.3,0.4c0.1,0.1,0.3,0.1,0.5,0.1l15.4-3.9c0.2-0.1,0.3-0.2,0.4-0.3
		c0.1-0.1,0.1-0.3,0-0.5l0.6-0.2l3.9,15.4c0.1,0.5,0.3,0.8,0.5,0.9c0.2,0.2,0.4,0.2,0.7,0.1l0.2,0.6l-4.5,1.1L229.8,39.8"/>
	<g id="Group-14" transform="translate(153.000000, 0.000000)">
		<g id="Clip-10">
		</g>
		<defs>
			<filter id="Adobe_OpacityMaskFilter_1_" filterUnits="userSpaceOnUse" x="26.1" y="29.9" width="22.6" height="20.1">
				<feColorMatrix  type="matrix" values="1 0 0 0 0  0 1 0 0 0  0 0 1 0 0  0 0 0 1 0"/>
			</filter>
		</defs>
		<mask maskUnits="userSpaceOnUse" x="26.1" y="29.9" width="22.6" height="20.1" id="mask-4_1_">
			<g class="st3">
				<polygon id="path-3_1_" class="st1" points="0.4,0 130.8,0 130.8,52.9 0.4,52.9 				"/>
			</g>
		</mask>
		<path id="Fill-9" class="st4" d="M40.2,37.8c-0.5,0.2-1.2,0.4-2,0.5l-6,0.9l-0.8-5.1l6-0.9c0.8-0.1,1.5-0.2,2.1-0.1
			c0.6,0,1,0.2,1.4,0.3c0.4,0.2,0.6,0.4,0.8,0.7c0.2,0.3,0.3,0.6,0.4,1c0.1,0.4,0,0.7,0,1c-0.1,0.3-0.3,0.6-0.6,0.9
			C41.2,37.4,40.8,37.6,40.2,37.8z M48.6,46.4c-0.2,0-0.4,0-0.6,0c-0.2,0-0.4-0.1-0.6-0.3l-5.6-5.9c1.5-0.5,2.6-1.2,3.4-2.2
			c0.8-0.9,1.1-2.2,0.8-3.7c-0.1-1-0.4-1.8-0.9-2.4c-0.4-0.6-1-1.1-1.7-1.4c-0.7-0.3-1.5-0.5-2.5-0.6c-0.9-0.1-1.9,0-3,0.2
			l-11.8,1.8l0.1,0.6c0.7-0.1,1,0.1,1.1,0.5l2.3,15.7c0.1,0.4-0.2,0.7-0.9,0.8l0.1,0.6l6-0.9l-0.1-0.6c-0.4,0.1-0.7,0-0.8,0
			c-0.2-0.1-0.3-0.2-0.3-0.4l-0.9-6.2l4.9-0.7l4.6,4.8c0.2,0.2,0.4,0.4,0.5,0.5c0.1,0.1,0.2,0.3,0.2,0.4c0,0.1,0,0.2-0.2,0.3
			c-0.1,0.1-0.3,0.1-0.5,0.2l0.1,0.6l6.5-1L48.6,46.4z"/>
		<defs>
			<filter id="Adobe_OpacityMaskFilter_2_" filterUnits="userSpaceOnUse" x="0.4" y="32.7" width="16.7" height="20.3">
				<feColorMatrix  type="matrix" values="1 0 0 0 0  0 1 0 0 0  0 0 1 0 0  0 0 0 1 0"/>
			</filter>
		</defs>
		<mask maskUnits="userSpaceOnUse" x="0.4" y="32.7" width="16.7" height="20.3" id="mask-4_2_">
			<g class="st5">
				<polygon id="path-3_2_" class="st1" points="0.4,0 130.8,0 130.8,52.9 0.4,52.9 				"/>
			</g>
		</mask>
		<path id="Fill-11" class="st6" d="M16.6,52.1c0-0.2-0.1-0.3-0.2-0.4c-0.1-0.1-0.2-0.2-0.4-0.2L2.5,52.4c-0.2,0-0.3,0.1-0.4,0.2
			c-0.1,0.1-0.1,0.3-0.1,0.4l-0.5,0l-0.3-5.5l0.5,0c0,0.1,0,0.2,0.1,0.3c0.1,0.1,0.2,0.2,0.3,0.1c0.1,0,0.2-0.1,0.4-0.1
			c0.2-0.1,0.3-0.2,0.5-0.3l7.4-4.7L2.6,39c-0.3-0.1-0.5-0.2-0.6-0.3c-0.2-0.1-0.3-0.1-0.4-0.1c-0.2,0-0.3,0.1-0.3,0.4l-0.5,0
			l-0.3-5.5l0.5,0c0,0.2,0.1,0.3,0.1,0.4c0.1,0.1,0.2,0.2,0.4,0.2l13.5-0.8c0.2,0,0.3-0.1,0.4-0.2c0.1-0.1,0.1-0.3,0.1-0.4l0.5,0
			l0.3,4.6l-0.5,0c0-0.5-0.2-0.8-0.6-0.8l-9.8,0.6l0,0.1l11.2,5.3l0,0.1L6,49.1l0,0.1l9.8-0.6c0.4,0,0.5-0.3,0.5-0.9l0.5,0l0.3,4.4
			L16.6,52.1"/>
		<defs>
			<filter id="Adobe_OpacityMaskFilter_3_" filterUnits="userSpaceOnUse" x="91.7" y="14.1" width="20.5" height="21.9">
				<feColorMatrix  type="matrix" values="1 0 0 0 0  0 1 0 0 0  0 0 1 0 0  0 0 0 1 0"/>
			</filter>
		</defs>
		<mask maskUnits="userSpaceOnUse" x="91.7" y="14.1" width="20.5" height="21.9" id="mask-4_3_">
			<g class="st7">
				<polygon id="path-3_3_" class="st1" points="0.4,0 130.8,0 130.8,52.9 0.4,52.9 				"/>
			</g>
		</mask>
		<path id="Fill-12" class="st8" d="M95.9,26.9l0.8-7.2l5,5.1L95.9,26.9z M111.9,27.8c-0.3,0-0.5,0-0.8-0.1c-0.2,0-0.4-0.2-0.6-0.4
			L98.7,16.6c-0.3-0.2-0.5-0.4-0.6-0.6c-0.1-0.1-0.2-0.3-0.3-0.5c-0.1-0.2-0.1-0.4,0.1-0.6c0.1-0.1,0.2-0.2,0.4-0.3L98,14.1
			l-5.5,2.1l0.2,0.6c0.2,0,0.4,0,0.6,0c0.2,0,0.3,0.2,0.4,0.4c0.1,0.2,0.1,0.4,0.1,0.7c0,0.3-0.1,0.6-0.1,0.9l-1.3,15
			c0,0.4-0.1,0.7-0.2,1c-0.1,0.3-0.2,0.5-0.5,0.7l0.2,0.6l4.7-1.7l-0.2-0.6c-0.4,0.2-0.7,0.1-0.8-0.1c-0.1-0.2-0.1-0.6,0-1.1
			l0.3-2.8l8-3l2.1,2c0.3,0.3,0.5,0.5,0.6,0.8c0,0.1,0,0.2-0.1,0.4c-0.1,0.1-0.2,0.2-0.3,0.2l0.2,0.6l5.8-2.1L111.9,27.8z"/>
		<defs>
			<filter id="Adobe_OpacityMaskFilter_4_" filterUnits="userSpaceOnUse" x="111" y="0" width="19.8" height="22.2">
				<feColorMatrix  type="matrix" values="1 0 0 0 0  0 1 0 0 0  0 0 1 0 0  0 0 0 1 0"/>
			</filter>
		</defs>
		<mask maskUnits="userSpaceOnUse" x="111" y="0" width="19.8" height="22.2" id="mask-4_4_">
			<g class="st9">
				<polygon id="path-3_4_" class="st1" points="0.4,0 130.8,0 130.8,52.9 0.4,52.9 				"/>
			</g>
		</mask>
		<path id="Fill-13" class="st10" d="M117.6,5.8l0.3,0.6c-0.2,0.1-0.4,0.2-0.5,0.3c-0.1,0.1-0.2,0.3-0.1,0.5
			c0.1,0.1,0.4,0.4,0.9,0.7c0.5,0.3,1.1,0.7,1.8,1.1c0.7,0.4,1.4,0.8,2.2,1.2c0.7,0.4,1.4,0.8,1.8,1.1l1.3-6.8
			c0-0.3,0.1-0.6,0.1-0.8c0-0.2,0-0.4,0-0.5C125.3,3,125.1,3,124.9,3c-0.2,0.1-0.4,0.1-0.6,0.2l-0.3-0.6l5.5-2.6l0.3,0.6
			c-0.2,0.1-0.3,0.2-0.4,0.3c-0.1,0.1-0.2,0.2-0.4,0.4c-0.1,0.2-0.2,0.4-0.3,0.7c-0.1,0.3-0.1,0.7-0.2,1.2l-1.7,10.2l2.7,5.6
			c0.2,0.4,0.5,0.5,1,0.2l0.3,0.6l-5,2.4l-0.3-0.6c0.2-0.1,0.3-0.2,0.4-0.4c0.1-0.2,0.1-0.3,0-0.5l-2.7-5.6l-10.2-5.6
			c-0.2-0.1-0.6-0.2-0.9-0.2c-0.4,0-0.7,0.1-0.9,0.2L111,8.9L117.6,5.8"/>
	</g>
</g>
</svg>
